Patient4_TMGait_0pt7_01_left_07_EMG.mot
version=1
nRows=40
nColumns=33
inDegrees=no
endheader
time	1LAddLong	2LGlutMax	3LGlutMed	4LIliopsoas	5LSemiMemb	6LBicFemLong	7LRecFem	8LVastMed	9LVastLat	10LGasMed	11LTibAnt	12lTibPost	13LPeroneusLong	14LSol	15LExtDigLong	16LFlexDigLong	17RAddLong	18RGlutMax	19RGlutMed	20RIliopsoas	21RSemiMemb	22RBicFemLong	23RRecFem	24RVastMed	25RVastLat	26RGasMed	27RTibAnt	28RTibPost	29RPeroneusLong	30RSol	31RExtDigLong	32RFlexDigLong
8.06	-0.004578	-0.30746	0.000916	-0.014801	-0.058899	-0.035248	0.1474	0.024719	-0.28442	-0.059204	0.18753	-0.004272	0.072327	0.055542	-0.23575	-0.001373	-0.018616	-1.0901	-0.2298	-0.06424	-0.027161	-0.077209	-0.41412	0.17883	-1.6191	-0.034637	-0.023651	-0.007324	-1.039	0.11765	-0.004578	-0.010681
8.061	-0.006561	-0.32486	-0.000916	0.003052	0.005188	-0.034332	0.15533	0.015564	-0.31723	-0.008545	0.12604	0.010681	0.038147	0.004272	-0.090485	0.009766	0.011597	-1.2608	0.29526	-0.13306	-0.042419	-0.13794	-0.28397	0.039215	-0.76126	-0.029297	-0.10666	-0.018616	-0.007782	-0.009613	-0.006256	-0.007477
8.062	-0.003662	-0.30258	-0.00946	0.001373	0.035706	-0.023804	0.15488	0.007324	-0.32044	0.025024	0.14008	-0.002899	0.016937	0.006256	0.00824	-0.005188	0.013275	-1.2636	0.60425	-0.17746	-0.042114	-0.12146	-0.12466	-0.2002	-0.28275	-0.016327	-0.2475	-0.028076	0.4422	-0.14664	-0.000153	-0.007782
8.063	-0.003815	-0.29251	-0.025635	0.013275	0.018463	-0.011902	0.19409	0.020752	-0.3746	0.009613	0.10635	0.008087	0.045166	0.021973	0.10117	0.002747	0.027161	-1.351	0.38208	-0.06958	-0.036163	-0.11398	0.096436	-0.17609	-0.11093	-0.006866	-0.16647	-0.026093	1.0301	-0.40482	-0.001678	-0.002441
8.064	-0.003052	-0.23361	-0.024567	0.019684	0.001068	0.004883	0.19486	0.016479	-0.3952	-0.006256	0.03952	0.005798	0.10468	0.013275	0.18677	-0.010376	0.043945	-1.3252	0.10346	0.049286	-0.013733	-0.10407	0.23773	-0.16007	-0.12268	0.003662	-0.069122	-0.012512	0.73852	-0.33341	-0.005188	0.002136
8.065	-0.007782	-0.21347	-0.016022	-0.002289	-0.007935	0.016327	0.14694	0.012054	-0.43518	-0.000153	-0.023804	0.003967	0.069733	0.063171	0.075378	-0.011444	0.038757	-1.3979	-0.25452	0.10346	-0.005493	-0.11902	0.19363	-0.13519	-0.2475	0.006104	-0.039215	0.019836	-0.59036	0.023499	-0.000916	0.010376
8.066	-0.011139	-0.18692	-0.027161	0.006714	-0.00885	0.014801	0.13046	0.014343	-0.48904	-0.00946	-0.054932	0.002136	0.058899	0.060272	0.19226	-0.005341	0.03067	-1.62	-0.40832	-0.089569	-0.064392	-0.089569	0.14374	-0.19257	-0.31342	0.000916	-0.019073	0.022888	-0.74112	0.38864	-0.00412	0.007324
8.067	-0.00946	-0.15015	-0.028381	0.010681	-0.011139	0.005188	0.093079	0.016632	-0.53635	-0.016785	-0.000305	0.003815	0.058289	0.014954	0.010834	-0.007324	0.014496	-1.7082	-0.25925	-0.13397	-0.27023	-0.036774	0.013885	-0.24292	-0.13062	0	0.18601	0.011597	-1.4153	0.30609	-0.004272	0.00885
8.068	-0.001984	-0.14847	-0.04303	0.003967	-0.001221	-0.002289	0.050049	0.015411	-0.53833	-0.039063	0.10605	0.008087	0.045013	-0.044403	-0.074768	0.006714	0.006714	-1.6884	0.40466	-0.071259	-0.3421	0.019836	-0.12741	-0.098419	0.041046	-0.005493	0.28885	-0.001678	-0.5423	0.35553	-0.000305	0.004425
8.069	-0.002289	-0.11597	-0.055389	-0.000153	-0.010986	0.007935	0.023499	0.016785	-0.46997	-0.046692	0.14618	-0.002899	0.015717	-0.075378	0.23865	-0.005646	-0.009308	-1.6992	0.28793	0.09964	-0.25009	0.065002	-0.67169	-0.071259	0.10757	0.002441	0.5368	0.001068	-0.22675	0.022278	-0.003357	0.010376
8.07	-0.010986	-0.093536	-0.068359	0.00061	-0.016174	0.00351	0.011292	0.014191	-0.39276	-0.09079	0.079346	0.011749	0.095673	-0.037384	0.1294	0.003815	-0.038452	-1.6078	-0.010986	0.16907	0.089722	0.17273	-0.35324	-0.005951	0.19302	0.01709	0.43411	-0.01236	0.42465	-0.003662	-0.00885	0.00824
8.071	-0.007782	-0.048065	-0.028992	-0.00946	-0.012817	-0.005951	0.033112	0.019531	-0.35797	-0.057678	0.086517	0.004272	0.12833	-0.002289	0.012054	-0.006866	-0.039215	-1.5379	0.018616	0.11948	-0.078583	0.12528	0.33722	-0.0354	-0.016022	-0.007782	0.4007	-0.01297	-0.07309	0.086975	-0.001373	-0.009613
8.072	-0.006561	0.030823	-0.007019	-0.021362	0.000305	-0.003967	0.032501	-0.007629	-0.28061	0.01297	0.03067	0.005493	0.097656	0.042267	-0.12329	-0.00885	-0.039368	-1.3553	-0.28046	0.099182	0.024567	-0.13519	0.35202	0.1001	0.074005	-0.003662	-0.011902	-0.0177	-0.37705	-0.045471	-0.005798	-0.003662
8.073	-0.007324	0.057068	0.028381	0.004272	-0.007019	0.02533	0.03479	0.022736	-0.21408	0.021515	-0.066071	0.012054	0.09201	0.036163	-0.17136	-0.011597	-0.063477	-1.3243	-0.28503	0.14267	0.17731	-0.2449	0.36499	0.09964	0.031891	0.006409	-0.40878	-0.008545	-0.44678	-0.11536	-0.005035	-0.005035
8.074	-0.009308	0.094147	0.046539	0.012817	-0.017853	0.023041	0.028229	0.019379	-0.14511	0.036316	-0.058899	-0.000763	0.087585	0.01709	-0.050812	0.002594	-0.071869	-1.2241	-0.036926	0.10391	0.06073	-0.00473	0.10483	0.087433	0.001373	0.004578	-0.46555	0.005951	-0.17929	-0.10101	-0.001068	0.000763
8.075	-0.010681	0.13306	0.039368	0.016479	-0.040436	0.026093	0.032196	0.00885	-0.079498	0.019073	-0.06958	0.007324	0.081482	0.04837	-0.020447	0.007629	-0.075989	-1.0866	0.13763	0.04776	0.10346	0.034332	-0.12161	0.15335	-0.017548	0.005951	-0.098419	0.006104	0.092621	-0.15915	-0.005951	0.010834
8.076	-0.004578	0.15335	0.026093	0.017395	-0.05127	0.002441	0.05188	0.006409	-0.02655	0.008698	0.024414	0.005188	0.058746	0.000916	0.11368	-0.002136	-0.041809	-1.0301	0.22827	-0.037384	0.14236	0.031281	-0.11688	0.074615	0.068512	0.019531	-0.06485	-0.000916	0.48019	-0.22278	-0.000305	-0.003967
8.077	-0.000305	0.21057	0.036621	-0.003662	-0.00351	-0.04364	0.038452	0.003052	0.03418	0.005188	0.005951	0.005035	0.00824	-0.023651	0.17777	-0.007782	-0.070953	-0.96786	0.28229	-0.11719	0.20203	0.005341	-0.39017	0.20294	0.10819	0.021515	-0.60806	-0.004272	0.68787	-0.20309	-0.008545	0.000458
8.078	-0.00061	0.25055	0.049438	-0.012817	0.02182	-0.051117	0.027466	0.000458	0.088654	-0.022278	-0.1181	0.001373	0.078888	-0.052643	-0.10864	0.008698	-0.049133	-0.87448	0.018311	-0.18616	0.17014	-0.019531	-0.77911	-0.096436	0.071106	0.011444	-0.63736	-0.001678	0.61096	-0.11231	-0.006714	-0.010681
8.079	0.006561	0.30243	0.045471	-0.011597	0.036163	-0.030975	0.019379	0.011292	0.12085	-0.027771	-0.14297	0.00824	0.12024	-0.085754	-0.018616	0.002747	-0.0177	-0.74356	-0.19028	-0.14908	-0.03952	-0.060883	-0.40131	0.069885	0.074463	0.001221	-0.29663	-0.013123	0.71014	-0.08667	-0.000916	-0.011597
8.08	0.001068	0.31845	-0.001678	-0.010834	0.021057	0.041351	0.00351	0.003815	0.15167	-0.022888	-0.014648	0.000458	0.053101	-0.018005	0.037689	0.005798	0.007019	-0.63355	-0.23941	0.003967	-0.1355	-0.11902	-0.042419	0.31174	0.10544	-0.006714	-0.009918	-0.013885	-0.081024	-0.032806	-0.002441	-0.015869
8.081	-0.000458	0.31815	-0.00824	-0.019073	-0.010071	0.056152	0.006409	0.003967	0.15945	-0.014496	-0.005951	0.001831	0.043945	0.022736	0.043945	0.013123	0.020905	-0.50232	-0.11459	0.22125	0.034332	-0.27969	0.030823	0.42404	0.19791	-0.00412	0.041962	-0.006561	-0.23987	-0.024414	-0.006104	-0.014954
8.082	0.008087	0.31937	-0.002899	0.010223	-0.038147	0.029602	-0.00412	0.009003	0.20172	-0.014038	-0.024261	0.008392	0.061493	0.014801	-0.013733	0.007782	0.017548	-0.43884	-0.081024	0.27237	0.005951	-0.3186	-0.029755	0.35858	0.61111	0.007782	0.018616	-0.002441	-1.1098	-0.13184	-0.002289	-0.002899
8.083	0.009308	0.32928	-0.002594	0.015564	-0.086365	-0.022736	0.006714	0.004272	0.22003	-0.019836	0.12863	-0.000305	0.071106	-0.015564	-0.13107	-0.013428	-0.005035	-0.35538	-0.16525	0.20401	-0.019226	-0.2301	-0.21744	0.23529	0.7988	0.012512	0.12634	-0.003662	-0.48721	-0.045471	-0.003662	-0.005798
8.084	0.010071	0.31296	-0.005493	0.017548	-0.030823	-0.047607	0.004578	0.002441	0.23407	-0.013733	0.097961	-0.005798	0.062103	-0.02655	-0.1767	-0.007477	0.000153	-0.22949	-0.082855	0.1088	-0.034027	-0.20538	-0.02533	0.055542	0.63126	0.00824	0.078735	-0.014191	1.0696	0.009155	-0.004578	0.00473
8.085	0.006104	0.31662	0.001373	0.022736	0.011902	-0.033569	-0.011749	0.010071	0.24475	0.011749	-0.005035	-0.000305	0.019379	-0.068817	-0.076904	0.004578	0.002747	-0.16678	0.14664	0.021973	-0.047302	-0.16113	-0.11673	-0.068817	0.43243	0.010071	-0.30579	-0.010529	2.5035	0.12207	-0.003052	0.003967
8.086	-0.003204	0.30502	-0.012207	0.017548	-0.023041	-0.003967	0.013275	0.007019	0.25772	0.004425	-0.050354	0.002594	0.027161	-0.085144	0.027618	0.003357	0.008698	-0.10269	0.43503	-0.004425	-0.066376	-0.13397	-0.23285	-0.11246	0.31738	0.00885	-0.38589	-0.009003	1.4787	0.22003	-0.001526	-0.009155
8.087	-0.006714	0.2829	-0.013733	0.010223	-0.04425	-0.005493	0.01297	0.003815	0.26627	-0.03418	-0.014954	0.006256	0.013885	-0.18936	0.058136	0.019226	0.00412	-0.003662	0.43869	0.022125	-0.068665	-0.13153	0.046692	0.024719	0.006714	0.003204	-0.12451	-0.010223	-0.54718	0.30685	-0.008545	0.001068
8.088	0.003662	0.24735	-0.009003	0.01297	-0.08667	-0.029602	0.010071	0.011292	0.27954	-0.037842	-0.084229	0.004425	0.05722	-0.15625	0.033569	-0.001373	0.00885	0.095978	0.29526	-0.063934	-0.080261	-0.15595	0.45609	-0.32059	-1.1015	-0.008087	-0.05188	-0.013733	-0.72983	0.20676	-0.006561	0.000153
8.089	0.005341	0.25787	-0.015411	-0.005951	-0.13046	-0.098572	-0.027313	0.003204	0.2829	-0.037537	-0.00473	0.000458	0.12497	-0.068817	0.56274	-0.009918	0.022736	0.20584	-0.11063	-0.009766	-0.076447	-0.16693	0.40604	-0.61081	-1.5924	0.002747	-0.063477	-0.007782	-0.49408	-0.053101	-0.002594	0.001526
8.09	0.015106	0.21698	-0.006714	-0.004425	-0.079041	-0.16251	-0.016022	0.002136	0.29388	-0.035248	0.061188	0.002441	0.051422	0.019684	0.026245	0.004883	0.019073	0.21378	0.15091	0.010834	-0.034943	-0.17181	0.12299	-0.62851	-0.80124	0.001678	-0.065765	-0.010529	-0.25406	0.092163	-0.005188	-0.010071
8.091	0.026855	0.19699	-0.012665	0.002899	0.065613	-0.11139	-0.012054	0.007782	0.28336	-0.037537	0.041199	-0.000153	0.031128	0.014954	0.23224	0.008698	0.010071	0.33478	0.50415	0.012054	0.000763	-0.15274	-0.13733	-0.27435	-0.35248	0.00061	0.067444	-0.009766	0.32379	0.15366	-0.00061	-0.010376
8.092	0.032501	0.10819	0.003662	0.00824	0.10605	-0.055695	-0.013885	0.005341	0.28275	-0.055084	0.074005	0.001831	0.046692	0.013733	-0.24262	0.008545	-0.000763	0.38238	0.15167	-0.022278	0.004425	-0.1239	-0.11597	0.010223	-0.1384	-0.010223	0.14832	-0.005798	0.20523	0.096588	-0.005951	-0.014496
8.093	0.02655	0.093079	-0.006561	0.005646	0.053558	-0.024719	-0.004425	0.003815	0.27634	-0.062408	0.070343	0.00061	0.072327	0.005798	-0.29633	0.009918	0.006561	0.45624	-0.1886	-0.039673	-0.028534	-0.044098	0.023193	0.25681	-0.046387	-0.002899	0.15228	-0.012512	-1.2471	0.13504	-0.003357	-0.005646
8.094	0.020599	0.04364	-0.009155	0.015259	0.028381	-0.00946	-0.014801	0.007172	0.27435	-0.11231	0.030518	0.001526	0.020599	-0.084534	-0.1384	0.010376	-0.001373	0.50079	0.11459	-0.022125	-0.002899	-0.051575	0.23895	0.44373	0.050354	0.002289	0.039368	-0.005493	-0.66071	0.085144	-0.002747	-0.01297
8.095	0.019531	0.003052	-0.015564	0.011749	0.011139	0.001221	-0.015564	0.002594	0.27863	-0.082092	0.054779	-0.003204	0.013123	-0.04425	-0.17548	-0.010681	-0.013275	0.54932	0.14725	-0.008545	-0.012512	-0.087891	0.22217	0.32181	0.001678	0.006104	0.041351	-0.003357	0.43778	0.034485	0.001984	-0.020142
8.096	0.013275	-0.052032	-0.042572	0.012512	-0.003357	-0.007629	-0.014648	0.006714	0.28641	-0.011902	0.097961	0.009918	0.083008	-0.003662	-0.11658	0.009918	-0.028992	0.65735	0.093689	-0.042877	0.001678	-0.052643	0.042267	0.18631	-0.04364	0.021362	0.099945	-0.010529	-0.20218	0.002136	-0.002136	-0.015564
8.097	0.014038	-0.11643	-0.06134	0.007172	-0.009613	-0.037994	-0.00824	0.006409	0.29159	0.045471	0.11551	0.005951	0.097656	-0.057068	0.009613	0.011444	-0.022125	0.68802	-0.22827	-0.073395	0.012054	-0.018921	-0.078278	0.24719	-0.14633	0.023499	0.13153	-0.010986	-0.8168	-0.007172	-0.002594	-0.016327
8.098	0.009613	-0.09964	-0.11231	-0.001221	-0.008392	-0.037231	-0.028534	0.008698	0.28336	0.066833	0.043335	-0.003815	0.06134	-0.087433	0.089111	-0.006104	-0.000305	0.71564	-0.32684	-0.055542	-0.015411	-0.015106	-0.029449	0.33173	-0.11215	-0.003204	0.21896	-0.008545	-0.034637	0.0177	-0.000153	-0.014954
8.099	0.016632	-0.1355	-0.15625	0.015717	-0.011902	-0.045471	-0.019073	0.003662	0.29816	0.058441	-0.028381	0.002594	0.11154	-0.066528	0.062408	0.010529	0.012512	0.802	-0.15549	0.037384	-0.006104	-0.062408	-0.012817	0.16571	-0.055695	-0.020447	0.055084	0.00061	0.34439	-0.068207	-0.003357	-0.011749
